<?xml version="1.0" standalone="no"?>
<!DOCTYPE svg PUBLIC "-//W3C//DTD SVG 20010904//EN"
 "http://www.w3.org/TR/2001/REC-SVG-20010904/DTD/svg10.dtd">
<svg version="1.0" xmlns="http://www.w3.org/2000/svg"
 width="60.000000pt" height="60.000000pt" viewBox="0 0 60.000000 60.000000"
 preserveAspectRatio="xMidYMid meet">
<metadata>
Created by potrace 1.15, written by Peter Selinger 2001-2017
</metadata>
<g transform="translate(0.000000,60.000000) scale(0.100000,-0.100000)"
fill="#000000" stroke="none">
<path d="M22 582 c-11 -7 5 -42 67 -152 l81 -142 -31 -43 c-17 -24 -30 -47
-28 -52 2 -5 29 -48 59 -96 l55 -87 69 3 69 2 50 83 c43 72 52 82 78 82 24 0
32 7 54 50 29 57 31 70 10 70 -20 0 -19 6 6 47 l21 34 -31 39 c-17 21 -31 44
-31 51 0 7 12 32 26 56 14 25 24 46 22 48 -1 2 -28 5 -58 6 l-55 3 -30 -52
-30 -52 -57 0 -58 0 0 -55 c0 -52 1 -55 25 -55 24 0 24 0 7 -30 -9 -16 -19
-30 -22 -30 -3 0 -41 62 -85 138 l-80 137 -45 3 c-25 1 -51 -2 -58 -6z"/>
</g>
</svg>
